<?xml version="1.0" encoding="UTF-8"?>
<!DOCTYPE svg
PUBLIC "-//W3C//DTD SVG 1.1//EN"
       "http://www.w3.org/Graphics/SVG/1.1/DTD/svg11.dtd">
<svg viewBox="66 20 655 447" width="589px" height="427px" xmlns="http://www.w3.org/2000/svg" version="1.1">
   <line x1="540" y1="402" x2="530" y2="402" style="stroke:#0b0;stroke-width:1;"/>
   <line x1="377" y1="232" x2="367" y2="232" style="stroke:#0b0;stroke-width:1;"/>
   <line x1="530" y1="402" x2="377" y2="232" style="stroke:#0b0;stroke-width:1;"/>
   <line x1="532.5" y1="402" x2="536.03553390593" y2="405.53553390593" style="stroke:#0b0;stroke-width:2;"/>
   <line x1="532.5" y1="402" x2="536.03553390593" y2="398.46446609407" style="stroke:#0b0;stroke-width:2;"/>
   <line x1="372" y1="232" x2="375.53553390593" y2="235.53553390593" style="stroke:#0b0;stroke-width:2;"/>
   <line x1="372" y1="232" x2="375.53553390593" y2="228.46446609407" style="stroke:#0b0;stroke-width:2;"/>
   <line x1="540" y1="422" x2="530" y2="422" style="stroke:#bbb;stroke-width:1;"/>
   <line x1="404" y1="379" x2="394" y2="379" style="stroke:#bbb;stroke-width:1;"/>
   <line x1="530" y1="422" x2="404" y2="379" style="stroke:#bbb;stroke-width:1;"/>
   <line x1="532.5" y1="422" x2="536.03553390593" y2="425.53553390593" style="stroke:#bbb;stroke-width:2;"/>
   <line x1="532.5" y1="422" x2="536.03553390593" y2="418.46446609407" style="stroke:#bbb;stroke-width:2;"/>
   <line x1="399" y1="379" x2="402.53553390593" y2="382.53553390593" style="stroke:#bbb;stroke-width:2;"/>
   <line x1="399" y1="379" x2="402.53553390593" y2="375.46446609407" style="stroke:#bbb;stroke-width:2;"/>
   <line x1="103" y1="186" x2="93" y2="186" style="stroke:#cb0;stroke-width:1;"/>
   <line x1="71" y1="384" x2="81" y2="384" style="stroke:#cb0;stroke-width:1;"/>
   <line x1="93" y1="186" x2="71" y2="384" style="stroke:#cb0;stroke-width:1;"/>
   <line x1="95.5" y1="186" x2="99.035533905933" y2="189.53553390593" style="stroke:#cb0;stroke-width:2;"/>
   <line x1="95.5" y1="186" x2="99.035533905933" y2="182.46446609407" style="stroke:#cb0;stroke-width:2;"/>
   <line x1="76" y1="384" x2="72.464466094067" y2="387.53553390593" style="stroke:#cb0;stroke-width:2;"/>
   <line x1="76" y1="384" x2="72.464466094067" y2="380.46446609407" style="stroke:#cb0;stroke-width:2;"/>
   <line x1="539" y1="247" x2="529" y2="247" style="stroke:#bbb;stroke-width:1;"/>
   <line x1="530" y1="342" x2="540" y2="342" style="stroke:#bbb;stroke-width:1;"/>
   <line x1="529" y1="247" x2="530" y2="342" style="stroke:#bbb;stroke-width:1;"/>
   <line x1="531.5" y1="247" x2="535.03553390593" y2="250.53553390593" style="stroke:#bbb;stroke-width:2;"/>
   <line x1="531.5" y1="247" x2="535.03553390593" y2="243.46446609407" style="stroke:#bbb;stroke-width:2;"/>
   <line x1="535" y1="342" x2="531.46446609407" y2="345.53553390593" style="stroke:#bbb;stroke-width:2;"/>
   <line x1="535" y1="342" x2="531.46446609407" y2="338.46446609407" style="stroke:#bbb;stroke-width:2;"/>
   <line x1="470" y1="65" x2="480" y2="65" style="stroke:#333;stroke-width:1;"/>
   <line x1="529" y1="167" x2="539" y2="167" style="stroke:#333;stroke-width:1;"/>
   <line x1="480" y1="65" x2="529" y2="167" style="stroke:#333;stroke-width:1;"/>
   <line x1="477.5" y1="65" x2="473.96446609407" y2="68.535533905933" style="stroke:#333;stroke-width:2;"/>
   <line x1="477.5" y1="65" x2="473.96446609407" y2="61.464466094067" style="stroke:#333;stroke-width:2;"/>
   <line x1="534" y1="167" x2="530.46446609407" y2="170.53553390593" style="stroke:#333;stroke-width:2;"/>
   <line x1="534" y1="167" x2="530.46446609407" y2="163.46446609407" style="stroke:#333;stroke-width:2;"/>
   <line x1="388" y1="85" x2="378" y2="85" style="stroke:#cb0;stroke-width:1;"/>
   <line x1="237" y1="86" x2="227" y2="86" style="stroke:#cb0;stroke-width:1;"/>
   <line x1="378" y1="85" x2="237" y2="86" style="stroke:#cb0;stroke-width:1;"/>
   <line x1="380.5" y1="85" x2="384.03553390593" y2="88.535533905933" style="stroke:#cb0;stroke-width:2;"/>
   <line x1="380.5" y1="85" x2="384.03553390593" y2="81.464466094067" style="stroke:#cb0;stroke-width:2;"/>
   <line x1="232" y1="86" x2="235.53553390593" y2="89.535533905933" style="stroke:#cb0;stroke-width:2;"/>
   <line x1="232" y1="86" x2="235.53553390593" y2="82.464466094067" style="stroke:#cb0;stroke-width:2;"/>
   <rect width="100" height="20" x="540" y="312" style="fill:#007;stroke:black;"/>
   <text width="100" height="20" x="545" y="326" style="fill:#fff;" font-family="Arial" font-size="16px"> diskur</text>
   <rect width="100" height="20" x="540" y="332" style="fill:#aea;stroke:black;"/>
   <text width="100" height="20" x="545" y="346" style="fill:black;" font-family="Arial" font-size="16px">ID</text>
   <rect width="100" height="20" x="540" y="352" style="fill:none;stroke:black;"/>
   <text width="100" height="20" x="545" y="366" style="fill:black;" font-family="Arial" font-size="16px">nafn</text>
   <rect width="100" height="20" x="540" y="372" style="fill:none;stroke:black;"/>
   <text width="100" height="20" x="545" y="386" style="fill:black;" font-family="Arial" font-size="16px">utgafudagur</text>
   <rect width="100" height="20" x="540" y="392" style="fill:none;stroke:black;"/>
   <text width="100" height="20" x="545" y="406" style="fill:black;" font-family="Arial" font-size="16px">tegund_disks</text>
   <rect width="100" height="20" x="540" y="412" style="fill:none;stroke:black;"/>
   <text width="100" height="20" x="545" y="426" style="fill:black;" font-family="Arial" font-size="16px">utegefandi</text>
   <rect width="55" height="20" x="81" y="354" style="fill:#007;stroke:black;"/>
   <text width="55" height="20" x="86" y="368" style="fill:#fff;" font-family="Arial" font-size="16px"> flokkur</text>
   <rect width="55" height="20" x="81" y="374" style="fill:#aea;stroke:black;"/>
   <text width="55" height="20" x="86" y="388" style="fill:black;" font-family="Arial" font-size="16px">ID</text>
   <rect width="55" height="20" x="81" y="394" style="fill:none;stroke:black;"/>
   <text width="55" height="20" x="86" y="408" style="fill:black;" font-family="Arial" font-size="16px">nafn</text>
   <rect width="124" height="20" x="103" y="56" style="fill:#007;stroke:black;"/>
   <text width="124" height="20" x="108" y="70" style="fill:#fff;" font-family="Arial" font-size="16px"> flytjandi</text>
   <rect width="124" height="20" x="103" y="76" style="fill:#aea;stroke:black;"/>
   <text width="124" height="20" x="108" y="90" style="fill:black;" font-family="Arial" font-size="16px">ID</text>
   <rect width="124" height="20" x="103" y="96" style="fill:none;stroke:black;"/>
   <text width="124" height="20" x="108" y="110" style="fill:black;" font-family="Arial" font-size="16px">nafn</text>
   <rect width="124" height="20" x="103" y="116" style="fill:none;stroke:black;"/>
   <text width="124" height="20" x="108" y="130" style="fill:black;" font-family="Arial" font-size="16px">stofndagur</text>
   <rect width="124" height="20" x="103" y="136" style="fill:none;stroke:black;"/>
   <text width="124" height="20" x="108" y="150" style="fill:black;" font-family="Arial" font-size="16px">lysing</text>
   <rect width="124" height="20" x="103" y="156" style="fill:none;stroke:black;"/>
   <text width="124" height="20" x="108" y="170" style="fill:black;" font-family="Arial" font-size="16px">danardagur</text>
   <rect width="124" height="20" x="103" y="176" style="fill:none;stroke:black;"/>
   <text width="124" height="20" x="108" y="190" style="fill:black;" font-family="Arial" font-size="16px">flokkkur_flytjandi</text>
   <rect width="70" height="20" x="539" y="137" style="fill:#007;stroke:black;"/>
   <text width="70" height="20" x="544" y="151" style="fill:#fff;" font-family="Arial" font-size="16px"> lag</text>
   <rect width="70" height="20" x="539" y="157" style="fill:#aea;stroke:black;"/>
   <text width="70" height="20" x="544" y="171" style="fill:black;" font-family="Arial" font-size="16px">ID</text>
   <rect width="70" height="20" x="539" y="177" style="fill:none;stroke:black;"/>
   <text width="70" height="20" x="544" y="191" style="fill:black;" font-family="Arial" font-size="16px">nafn</text>
   <rect width="70" height="20" x="539" y="197" style="fill:none;stroke:black;"/>
   <text width="70" height="20" x="544" y="211" style="fill:black;" font-family="Arial" font-size="16px">lengd</text>
   <rect width="70" height="20" x="539" y="217" style="fill:none;stroke:black;"/>
   <text width="70" height="20" x="544" y="231" style="fill:black;" font-family="Arial" font-size="16px">texti</text>
   <rect width="70" height="20" x="539" y="237" style="fill:none;stroke:black;"/>
   <text width="70" height="20" x="544" y="251" style="fill:black;" font-family="Arial" font-size="16px">diskur_id</text>
   <rect width="82" height="20" x="388" y="35" style="fill:#007;stroke:black;"/>
   <text width="82" height="20" x="393" y="49" style="fill:#fff;" font-family="Arial" font-size="16px"> lag_fly</text>
   <rect width="82" height="20" x="388" y="55" style="fill:#aea;stroke:black;"/>
   <text width="82" height="20" x="393" y="69" style="fill:black;" font-family="Arial" font-size="16px">lag_id</text>
   <rect width="82" height="20" x="388" y="75" style="fill:#aea;stroke:black;"/>
   <text width="82" height="20" x="393" y="89" style="fill:black;" font-family="Arial" font-size="16px">flytjandi_id</text>
   <rect width="55" height="20" x="312" y="202" style="fill:#007;stroke:black;"/>
   <text width="55" height="20" x="317" y="216" style="fill:#fff;" font-family="Arial" font-size="16px"> tegund</text>
   <rect width="55" height="20" x="312" y="222" style="fill:#aea;stroke:black;"/>
   <text width="55" height="20" x="317" y="236" style="fill:black;" font-family="Arial" font-size="16px">ID</text>
   <rect width="55" height="20" x="312" y="242" style="fill:none;stroke:black;"/>
   <text width="55" height="20" x="317" y="256" style="fill:black;" font-family="Arial" font-size="16px">nafn</text>
   <rect width="76" height="20" x="318" y="349" style="fill:#007;stroke:black;"/>
   <text width="76" height="20" x="323" y="363" style="fill:#fff;" font-family="Arial" font-size="16px"> utgefandi</text>
   <rect width="76" height="20" x="318" y="369" style="fill:#aea;stroke:black;"/>
   <text width="76" height="20" x="323" y="383" style="fill:black;" font-family="Arial" font-size="16px">ID</text>
   <rect width="76" height="20" x="318" y="389" style="fill:none;stroke:black;"/>
   <text width="76" height="20" x="323" y="403" style="fill:black;" font-family="Arial" font-size="16px">nafn</text>
</svg>
